<?xml version="1.0" encoding="utf-8"?>
<!-- Generator: Adobe Illustrator 25.0.0, SVG Export Plug-In . SVG Version: 6.00 Build 0)  -->
<svg version="1.1" id="Ñëîé_1" xmlns="http://www.w3.org/2000/svg" xmlns:xlink="http://www.w3.org/1999/xlink" x="0px" y="0px"
	 viewBox="0 0 985.4 1030.4" style="enable-background:new 0 0 985.4 1030.4;" xml:space="preserve">
<style type="text/css">
	.st0{fill:#42E8E0;}
	.st1{fill:url(#SVGID_1_);}
	.st2{fill:url(#SVGID_2_);}
	.st3{fill:#24126A;}
	.st4{opacity:0.51;}
	.st5{fill:#453C9E;}
	.st6{fill:url(#SVGID_3_);}
	.st7{fill:url(#SVGID_4_);}
	.st8{fill:#FFFFFF;}
	.st9{opacity:0.15;}
	.st10{clip-path:url(#SVGID_6_);}
	.st11{fill:url(#SVGID_7_);}
	.st12{fill:url(#SVGID_8_);}
	.st13{opacity:0.5;}
	.st14{opacity:0.8;}
	.st15{opacity:0.5;fill:url(#SVGID_9_);}
</style>
<g>
	<g>
		<path class="st0" d="M562,1030.4c-4.3,0-8.8-1.1-12.3-3.1L5.9,713.3c-3.7-2.2-5.9-5.2-5.9-8.3c0-2.7,1.6-5.1,4.5-6.7L329,511
			c5.8-3.3,15.5-3,22.1,0.8l543.8,314c3.7,2.2,5.9,5.2,5.9,8.2c0,2.7-1.6,5.1-4.5,6.7l-324.5,187.4
			C569.1,1029.7,565.7,1030.4,562,1030.4z M7.8,710l543.8,314c5.3,3.1,13.6,3.4,18.2,0.8l324.5-187.4c1.1-0.7,2.5-1.8,2.5-3.4
			c0-1.6-1.5-3.5-4-4.9l-543.8-314c-5.3-3.1-13.6-3.4-18.2-0.8L6.4,701.7c-1.1,0.7-2.5,1.8-2.5,3.4C3.9,706.7,5.4,708.6,7.8,710
			L7.8,710z"/>
		<g>
			<g>
				<g>
					<g>
						<g>
							
								<linearGradient id="SVGID_1_" gradientUnits="userSpaceOnUse" x1="-2619.2898" y1="376.1589" x2="-1984.6013" y2="376.1589" gradientTransform="matrix(-1 0 0 1 -1633.8938 0)">
								<stop  offset="0" style="stop-color:#C0BFF6"/>
								<stop  offset="0.2938" style="stop-color:#C5C4F7"/>
								<stop  offset="0.6399" style="stop-color:#D3D2F9"/>
								<stop  offset="1" style="stop-color:#E9E9FD"/>
							</linearGradient>
							<path class="st1" d="M350.8,415.6L419.6,7.8L414,5.4l8.3-4.8l0,0c1.6-1.1,3.9-1,6.4,0.4l549.4,317.2c4.5,2.6,7.9,9.3,7.1,14
								L916,743.4c-0.4,2.1-1.4,3.6-2.9,4.2l0,0l-8.1,4.7l-1.4-7.6l0.5,0.1L358,429.6C353.4,427,350,420.3,350.8,415.6z"/>
							
								<linearGradient id="SVGID_2_" gradientUnits="userSpaceOnUse" x1="-2619.2859" y1="538.9279" x2="-2510.3035" y2="538.9279" gradientTransform="matrix(-1 0 0 1 -1633.8938 0)">
								<stop  offset="0" style="stop-color:#5761D7"/>
								<stop  offset="0.1779" style="stop-color:#5C66D9"/>
								<stop  offset="0.3876" style="stop-color:#6A73DF"/>
								<stop  offset="0.6134" style="stop-color:#8289E8"/>
								<stop  offset="0.849" style="stop-color:#A3A7F5"/>
								<stop  offset="1" style="stop-color:#BCBEFF"/>
							</linearGradient>
							<path class="st2" d="M975.1,329.5l9-4c1,2.3,1.5,4.7,1.2,6.8L916,743.4c-0.4,2.1-1.4,3.6-2.9,4.2l0,0l-8.1,4.7l-1.4-7.6
								l0.5,0.1l-27.6-16L975.1,329.5z"/>
							<path class="st3" d="M349.3,434.5l549.4,317.2c4.2,2.4,7.9,1,8.6-3.4l69.3-411.1c0.8-4.7-2.6-11.4-7.1-14L420.1,6.1
								c-4.2-2.4-7.9-1-8.6,3.4l-69.3,411.1C341.4,425.2,344.8,431.9,349.3,434.5z"/>
							<g class="st4">
								<polygon class="st5" points="418.3,13.8 970.3,332.3 900.6,744.5 348.9,426.1 								"/>
							</g>
						</g>
						<g>
							
								<linearGradient id="SVGID_3_" gradientUnits="userSpaceOnUse" x1="-2534.2563" y1="716.5202" x2="-1637.8682" y2="716.5202" gradientTransform="matrix(-1 0 0 1 -1633.8938 0)">
								<stop  offset="0" style="stop-color:#5761D7"/>
								<stop  offset="0.1779" style="stop-color:#5C66D9"/>
								<stop  offset="0.3876" style="stop-color:#6A73DF"/>
								<stop  offset="0.6134" style="stop-color:#8289E8"/>
								<stop  offset="0.849" style="stop-color:#A3A7F5"/>
								<stop  offset="1" style="stop-color:#BCBEFF"/>
							</linearGradient>
							<path class="st6" d="M4,629.2l30,15.7l300.7-173.6c5-2.9,13.8-2.5,19.6,0.8l518.5,299.4c5-2.8,27.6-13.7,27.6-13.7l-11,17.8
								c0,0,0,0,0,0c-0.5,1.3-1.4,2.5-3.1,3.4L569.6,961.8c-5,2.9-13.8,2.5-19.6-0.8L19.4,654.6c-2.4-1.4-3.8-3-4.5-4.7l0,0L4,629.2
								z"/>
							
								<linearGradient id="SVGID_4_" gradientUnits="userSpaceOnUse" x1="-2932.4866" y1="692.0101" x2="-1611.6278" y2="692.0101" gradientTransform="matrix(-1 0 0 1 -1633.8938 0)">
								<stop  offset="0" style="stop-color:#C0BFF6"/>
								<stop  offset="0.2938" style="stop-color:#C5C4F7"/>
								<stop  offset="0.6399" style="stop-color:#D3D2F9"/>
								<stop  offset="1" style="stop-color:#E9E9FD"/>
							</linearGradient>
							<path class="st7" d="M8.6,634.1l543.8,314c6,3.4,15,3.8,20.1,0.8l324.5-187.4c5.2-3,4.5-8.2-1.4-11.6L351.8,436
								c-6-3.4-15-3.8-20.1-0.8L7.2,622.5C2,625.5,2.7,630.7,8.6,634.1z"/>
							<path class="st8" d="M8.6,631.7l543.8,314c6,3.4,15,3.8,20.1,0.8l324.5-187.4c1.8-1,2.9-2.4,3.3-3.8c0.6,2.3-0.4,4.6-3.3,6.2
								L572.5,948.9c-5.2,3-14.2,2.6-20.1-0.8L8.6,634.1c-3.9-2.2-5.4-5.2-4.7-7.8C4.4,628.2,5.9,630.1,8.6,631.7z"/>
						</g>
					</g>
					<g class="st9">
						<defs>
							<polygon id="SVGID_5_" class="st9" points="970.3,332.3 418.3,13.8 348.9,426.1 900.6,744.5 							"/>
						</defs>
						<clipPath id="SVGID_6_">
							<use xlink:href="#SVGID_5_"  style="overflow:visible;"/>
						</clipPath>
						<g class="st10">
							<g>
								
									<linearGradient id="SVGID_7_" gradientUnits="userSpaceOnUse" x1="-2878.9456" y1="519.2437" x2="-1982.5577" y2="519.2437" gradientTransform="matrix(-1 0 0 1 -1633.8938 0)">
									<stop  offset="0" style="stop-color:#5761D7"/>
									<stop  offset="0.1779" style="stop-color:#5C66D9"/>
									<stop  offset="0.3876" style="stop-color:#6A73DF"/>
									<stop  offset="0.6134" style="stop-color:#8289E8"/>
									<stop  offset="0.849" style="stop-color:#A3A7F5"/>
									<stop  offset="1" style="stop-color:#BCBEFF"/>
								</linearGradient>
								<path class="st11" d="M348.7,431.9l30,15.7L679.3,274c5-2.9,13.8-2.5,19.6,0.8l518.5,299.4c5-2.8,27.6-13.7,27.6-13.7
									l-11,17.8c0,0,0,0,0,0c-0.5,1.3-1.4,2.5-3.1,3.4L914.3,764.5c-5,2.9-13.8,2.5-19.6-0.8L364.1,457.4c-2.4-1.4-3.8-3-4.5-4.7
									l0,0L348.7,431.9z"/>
								
									<linearGradient id="SVGID_8_" gradientUnits="userSpaceOnUse" x1="-2577.7563" y1="494.7335" x2="-1680.8905" y2="494.7335" gradientTransform="matrix(-1 0 0 1 -1633.8938 0)">
									<stop  offset="0" style="stop-color:#C0BFF6"/>
									<stop  offset="0.2938" style="stop-color:#C5C4F7"/>
									<stop  offset="0.6399" style="stop-color:#D3D2F9"/>
									<stop  offset="1" style="stop-color:#E9E9FD"/>
								</linearGradient>
								<path class="st12" d="M353.3,436.8l543.8,314c6,3.4,15,3.8,20.1,0.8l324.5-187.4c5.2-3,4.5-8.2-1.4-11.6l-543.8-314
									c-6-3.4-15-3.8-20.1-0.8L351.9,425.2C346.7,428.2,347.3,433.4,353.3,436.8z"/>
								<path class="st8" d="M1240.3,552.7l-543.8-314c-3.8-2.2-8.9-3.1-13.4-2.7c3.3,0.3,6.7,1.2,9.4,2.7l543.8,314
									c6,3.4,6.6,8.6,1.4,11.6L913.2,751.6c-1.8,1.1-4.2,1.7-6.7,1.9c4,0.3,7.9-0.3,10.7-1.9l324.5-187.4
									C1246.9,561.3,1246.3,556.1,1240.3,552.7z"/>
							</g>
							<g class="st13">
								<path class="st3" d="M638.2,382.8l-17.4-10.1c-1.4-0.8-3.8-0.7-5.3,0.1l-19.4,11.3c-1.5,0.9-1.6,2.3-0.2,3.1l17.4,10.1
									c1.4,0.8,3.8,0.7,5.3-0.1l19.4-11.3C639.5,384.9,639.6,383.6,638.2,382.8z"/>
								<path class="st3" d="M665.1,398.3l-17.4-10.1c-1.4-0.8-3.8-0.7-5.3,0.1L623,399.7c-1.5,0.9-1.6,2.3-0.2,3.1l17.4,10.1
									c1.4,0.8,3.8,0.7,5.3-0.1l19.4-11.3C666.4,400.5,666.5,399.1,665.1,398.3z"/>
								<path class="st3" d="M692,413.8l-17.4-10.1c-1.4-0.8-3.8-0.7-5.3,0.1l-19.4,11.3c-1.5,0.9-1.6,2.3-0.2,3.1l17.4,10.1
									c1.4,0.8,3.8,0.7,5.3-0.1l19.4-11.3C693.3,416,693.4,414.7,692,413.8z"/>
								<path class="st3" d="M671.5,434.5l-17.4-10.1c-1.4-0.8-3.8-0.7-5.3,0.1l-16.3,9.5c-1.5,0.9-1.6,2.3-0.2,3.1l17.4,10.1
									c1.4,0.8,3.8,0.7,5.3-0.1l16.3-9.5C672.8,436.7,672.9,435.3,671.5,434.5z"/>
								<path class="st3" d="M698.4,450.1L681,440c-1.4-0.8-3.8-0.7-5.3,0.1l-16.3,9.5c-1.5,0.9-1.6,2.3-0.2,3.1l17.4,10.1
									c1.4,0.8,3.8,0.7,5.3-0.1l16.3-9.5C699.7,452.3,699.8,450.9,698.4,450.1z"/>
								<path class="st3" d="M725.3,465.6l-17.4-10.1c-1.4-0.8-3.8-0.7-5.3,0.1l-16.3,9.5c-1.5,0.9-1.6,2.3-0.2,3.1l17.4,10.1
									c1.4,0.8,3.8,0.7,5.3-0.1l16.3-9.5C726.6,467.8,726.7,466.4,725.3,465.6z"/>
								<path class="st3" d="M752.3,481.2l-17.4-10.1c-1.4-0.8-3.8-0.7-5.3,0.1l-16.3,9.5c-1.5,0.9-1.6,2.3-0.2,3.1l17.4,10.1
									c1.4,0.8,3.8,0.7,5.3-0.1l16.3-9.5C753.6,483.3,753.7,482,752.3,481.2z"/>
								<path class="st3" d="M779.2,496.7l-17.4-10.1c-1.4-0.8-3.8-0.7-5.3,0.1l-16.3,9.5c-1.5,0.9-1.6,2.3-0.2,3.1l17.4,10.1
									c1.4,0.8,3.8,0.7,5.3-0.1l16.3-9.5C780.5,498.9,780.6,497.5,779.2,496.7z"/>
								<path class="st3" d="M806.1,512.2l-17.4-10.1c-1.4-0.8-3.8-0.7-5.3,0.1l-16.3,9.5c-1.5,0.9-1.6,2.3-0.2,3.1l17.4,10.1
									c1.4,0.8,3.8,0.7,5.3-0.1l16.3-9.5C807.4,514.4,807.5,513.1,806.1,512.2z"/>
								<path class="st3" d="M833,527.8l-17.4-10.1c-1.4-0.8-3.8-0.7-5.3,0.1l-16.3,9.5c-1.5,0.9-1.6,2.3-0.2,3.1l17.4,10.1
									c1.4,0.8,3.8,0.7,5.3-0.1l16.3-9.5C834.3,530,834.4,528.6,833,527.8z"/>
								<path class="st3" d="M859.9,543.3l-17.4-10.1c-1.4-0.8-3.8-0.7-5.3,0.1l-16.3,9.5c-1.5,0.9-1.6,2.3-0.2,3.1l17.4,10.1
									c1.4,0.8,3.8,0.7,5.3-0.1l16.3-9.5C861.2,545.5,861.3,544.1,859.9,543.3z"/>
								<path class="st3" d="M886.9,558.9l-17.4-10.1c-1.4-0.8-3.8-0.7-5.3,0.1l-16.3,9.5c-1.5,0.9-1.6,2.3-0.2,3.1l17.4,10.1
									c1.4,0.8,3.8,0.7,5.3-0.1l16.3-9.5C888.2,561.1,888.3,559.7,886.9,558.9z"/>
								<path class="st3" d="M913.8,574.4l-17.4-10.1c-1.4-0.8-3.8-0.7-5.3,0.1l-16.3,9.5c-1.5,0.9-1.6,2.3-0.2,3.1l17.4,10.1
									c1.4,0.8,3.8,0.7,5.3-0.1l16.3-9.5C915.1,576.6,915.2,575.2,913.8,574.4z"/>
								<path class="st3" d="M660.3,456.7l-17.4-10.1c-1.4-0.8-3.8-0.7-5.3,0.1l-16.3,9.5c-1.5,0.9-1.6,2.3-0.2,3.1l17.4,10.1
									c1.4,0.8,3.8,0.7,5.3-0.1l16.3-9.5C661.6,458.9,661.7,457.5,660.3,456.7z"/>
								<path class="st3" d="M633,440.9l-17.4-10.1c-1.4-0.8-3.8-0.7-5.3,0.1l-16.3,9.5c-1.5,0.9-1.6,2.3-0.2,3.1l17.4,10.1
									c1.4,0.8,3.8,0.7,5.3-0.1l16.3-9.5C634.3,443.1,634.4,441.8,633,440.9z"/>
								<path class="st3" d="M605.6,425.1l-37.5-21.7c-1.4-0.8-3.8-0.7-5.3,0.1l-16.3,9.5c-1.5,0.9-1.6,2.3-0.2,3.1l37.5,21.7
									c1.4,0.8,3.8,0.7,5.3-0.1l16.3-9.5C606.9,427.3,607,426,605.6,425.1z"/>
								<path class="st3" d="M573.8,435.5l-30.5-17.6c-1.4-0.8-3.8-0.7-5.3,0.1l-16.3,9.5c-1.5,0.9-1.6,2.3-0.2,3.1l30.5,17.6
									c1.4,0.8,3.8,0.7,5.3-0.1l16.3-9.5C575.1,437.7,575.2,436.3,573.8,435.5z"/>
								<path class="st3" d="M687.2,472.3l-17.4-10.1c-1.4-0.8-3.8-0.7-5.3,0.1l-16.3,9.5c-1.5,0.9-1.6,2.3-0.2,3.1l17.4,10.1
									c1.4,0.8,3.8,0.7,5.3-0.1l16.3-9.5C688.5,474.4,688.6,473.1,687.2,472.3z"/>
								<path class="st3" d="M714.1,487.8l-17.4-10.1c-1.4-0.8-3.8-0.7-5.3,0.1l-16.3,9.5c-1.5,0.9-1.6,2.3-0.2,3.1l17.4,10.1
									c1.4,0.8,3.8,0.7,5.3-0.1l16.3-9.5C715.4,490,715.5,488.6,714.1,487.8z"/>
								<path class="st3" d="M741,503.3l-17.4-10.1c-1.4-0.8-3.8-0.7-5.3,0.1l-16.3,9.5c-1.5,0.9-1.6,2.3-0.2,3.1l17.4,10.1
									c1.4,0.8,3.8,0.7,5.3-0.1l16.3-9.5C742.4,505.5,742.4,504.2,741,503.3z"/>
								<path class="st3" d="M768,518.9l-17.4-10.1c-1.4-0.8-3.8-0.7-5.3,0.1l-16.3,9.5c-1.5,0.9-1.6,2.3-0.2,3.1l17.4,10.1
									c1.4,0.8,3.8,0.7,5.3-0.1l16.3-9.5C769.3,521.1,769.4,519.7,768,518.9z"/>
								<path class="st3" d="M794.9,534.4l-17.4-10.1c-1.4-0.8-3.8-0.7-5.3,0.1l-16.3,9.5c-1.5,0.9-1.6,2.3-0.2,3.1l17.4,10.1
									c1.4,0.8,3.8,0.7,5.3-0.1l16.3-9.5C796.2,536.6,796.3,535.2,794.9,534.4z"/>
								<path class="st3" d="M821.8,550l-17.4-10.1c-1.4-0.8-3.8-0.7-5.3,0.1l-16.3,9.5c-1.5,0.9-1.6,2.3-0.2,3.1l17.4,10.1
									c1.4,0.8,3.8,0.7,5.3-0.1l16.3-9.5C823.1,552.2,823.2,550.8,821.8,550z"/>
								<path class="st3" d="M848.7,565.5l-17.4-10.1c-1.4-0.8-3.8-0.7-5.3,0.1l-16.3,9.5c-1.5,0.9-1.6,2.3-0.2,3.1l17.4,10.1
									c1.4,0.8,3.8,0.7,5.3-0.1l16.3-9.5C850,567.7,850.1,566.3,848.7,565.5z"/>
								<path class="st3" d="M875.7,581.1L858.2,571c-1.4-0.8-3.8-0.7-5.3,0.1l-16.3,9.5c-1.5,0.9-1.6,2.3-0.2,3.1l17.4,10.1
									c1.4,0.8,3.8,0.7,5.3-0.1l16.3-9.5C877,583.2,877.1,581.9,875.7,581.1z"/>
								<path class="st3" d="M902.6,596.6l-17.4-10.1c-1.4-0.8-3.8-0.7-5.3,0.1l-16.3,9.5c-1.5,0.9-1.6,2.3-0.2,3.1l17.4,10.1
									c1.4,0.8,3.8,0.7,5.3-0.1l16.3-9.5C903.9,598.8,904,597.4,902.6,596.6z"/>
								<path class="st3" d="M950.4,624.2l-38-22c-1.4-0.8-3.8-0.7-5.3,0.1l-16.3,9.5c-1.5,0.9-1.6,2.3-0.2,3.1l38,22
									c1.4,0.8,3.8,0.7,5.3-0.1l16.3-9.5C951.7,626.4,951.8,625,950.4,624.2z"/>
								<path class="st3" d="M901.1,653.1L869,634.5c-1.4-0.8-3.8-0.7-5.3,0.1l-16.3,9.5c-1.5,0.9-1.6,2.3-0.2,3.1l32.1,18.5
									c1.4,0.8,3.8,0.7,5.3-0.1l16.3-9.5C902.4,655.3,902.5,653.9,901.1,653.1z"/>
								<path class="st3" d="M683.5,498.8L666,488.7c-1.4-0.8-3.8-0.7-5.3,0.1l-16.3,9.5c-1.5,0.9-1.6,2.3-0.2,3.1l17.4,10.1
									c1.4,0.8,3.8,0.7,5.3-0.1l16.3-9.5C684.8,501,684.9,499.6,683.5,498.8z"/>
								<path class="st3" d="M655.9,482.8l-17.4-10.1c-1.4-0.8-3.8-0.7-5.3,0.1l-16.3,9.5c-1.5,0.9-1.6,2.3-0.2,3.1l17.4,10.1
									c1.4,0.8,3.8,0.7,5.3-0.1l16.3-9.5C657.2,485,657.3,483.6,655.9,482.8z"/>
								<path class="st3" d="M628.3,466.9l-17.4-10.1c-1.4-0.8-3.8-0.7-5.3,0.1l-16.3,9.5c-1.5,0.9-1.6,2.3-0.2,3.1l17.4,10.1
									c1.4,0.8,3.8,0.7,5.3-0.1l16.3-9.5C629.6,469.1,629.7,467.7,628.3,466.9z"/>
								<path class="st3" d="M600.7,451l-17.4-10.1c-1.4-0.8-3.8-0.7-5.3,0.1l-16.3,9.5c-1.5,0.9-1.6,2.3-0.2,3.1l17.4,10.1
									c1.4,0.8,3.8,0.7,5.3-0.1l16.3-9.5C602,453.2,602.1,451.8,600.7,451z"/>
								<path class="st3" d="M710.4,514.3L693,504.2c-1.4-0.8-3.8-0.7-5.3,0.1l-16.3,9.5c-1.5,0.9-1.6,2.3-0.2,3.1l17.4,10.1
									c1.4,0.8,3.8,0.7,5.3-0.1l16.3-9.5C711.7,516.5,711.8,515.1,710.4,514.3z"/>
								<path class="st3" d="M737.3,529.9l-17.4-10.1c-1.4-0.8-3.8-0.7-5.3,0.1l-16.3,9.5c-1.5,0.9-1.6,2.3-0.2,3.1l17.4,10.1
									c1.4,0.8,3.8,0.7,5.3-0.1l16.3-9.5C738.6,532,738.7,530.7,737.3,529.9z"/>
								<path class="st3" d="M764.2,545.4l-17.4-10.1c-1.4-0.8-3.8-0.7-5.3,0.1l-16.3,9.5c-1.5,0.9-1.6,2.3-0.2,3.1l17.4,10.1
									c1.4,0.8,3.8,0.7,5.3-0.1l16.3-9.5C765.5,547.6,765.6,546.2,764.2,545.4z"/>
								<path class="st3" d="M791.2,560.9l-17.4-10.1c-1.4-0.8-3.8-0.7-5.3,0.1l-16.3,9.5c-1.5,0.9-1.6,2.3-0.2,3.1l17.4,10.1
									c1.4,0.8,3.8,0.7,5.3-0.1l16.3-9.5C792.5,563.1,792.6,561.7,791.2,560.9z"/>
								<path class="st3" d="M818.1,576.5l-17.4-10.1c-1.4-0.8-3.8-0.7-5.3,0.1l-16.3,9.5c-1.5,0.9-1.6,2.3-0.2,3.1l17.4,10.1
									c1.4,0.8,3.8,0.7,5.3-0.1l16.3-9.5C819.4,578.7,819.5,577.3,818.1,576.5z"/>
								<path class="st3" d="M845,592L827.6,582c-1.4-0.8-3.8-0.7-5.3,0.1l-16.3,9.5c-1.5,0.9-1.6,2.3-0.2,3.1l17.4,10.1
									c1.4,0.8,3.8,0.7,5.3-0.1l16.3-9.5C846.3,594.2,846.4,592.8,845,592z"/>
								<path class="st3" d="M871.9,607.6l-17.4-10.1c-1.4-0.8-3.8-0.7-5.3,0.1l-16.3,9.5c-1.5,0.9-1.6,2.3-0.2,3.1l17.4,10.1
									c1.4,0.8,3.8,0.7,5.3-0.1l16.3-9.5C873.2,609.7,873.3,608.4,871.9,607.6z"/>
								<path class="st3" d="M898.8,623.1L881.4,613c-1.4-0.8-3.8-0.7-5.3,0.1l-16.3,9.5c-1.5,0.9-1.6,2.3-0.2,3.1l17.4,10.1
									c1.4,0.8,3.8,0.7,5.3-0.1l16.3-9.5C900.1,625.3,900.2,623.9,898.8,623.1z"/>
								<path class="st3" d="M925.8,638.7l-17.4-10.1c-1.4-0.8-3.8-0.7-5.3,0.1l-16.3,9.5c-1.5,0.9-1.6,2.3-0.2,3.1l17.4,10.1
									c1.4,0.8,3.8,0.7,5.3-0.1l16.3-9.5C927.1,640.8,927.2,639.5,925.8,638.7z"/>
								<path class="st3" d="M618.4,489.9L601,479.8c-1.4-0.8-3.8-0.7-5.3,0.1l-16.3,9.5c-1.5,0.9-1.6,2.3-0.2,3.1l17.4,10.1
									c1.4,0.8,3.8,0.7,5.3-0.1l16.3-9.5C619.7,492.1,619.8,490.7,618.4,489.9z"/>
								<path class="st3" d="M591.6,474.4l-17.4-10.1c-1.4-0.8-3.8-0.7-5.3,0.1l-16.3,9.5c-1.5,0.9-1.6,2.3-0.2,3.1l17.4,10.1
									c1.4,0.8,3.8,0.7,5.3-0.1l16.3-9.5C592.9,476.6,593,475.2,591.6,474.4z"/>
								<path class="st3" d="M564.8,458.9l-17.4-10.1c-1.4-0.8-3.8-0.7-5.3,0.1l-16.3,9.5c-1.5,0.9-1.6,2.3-0.2,3.1l17.4,10.1
									c1.4,0.8,3.8,0.7,5.3-0.1l16.3-9.5C566.1,461.1,566.2,459.7,564.8,458.9z"/>
								<path class="st3" d="M538.1,443.5l-17.4-10.1c-1.4-0.8-3.8-0.7-5.3,0.1l-16.3,9.5c-1.5,0.9-1.6,2.3-0.2,3.1l17.4,10.1
									c1.4,0.8,3.8,0.7,5.3-0.1l16.3-9.5C539.4,445.7,539.5,444.3,538.1,443.5z"/>
								<path class="st3" d="M512.1,458.6l-17.4-10.1c-1.4-0.8-3.8-0.7-5.3,0.1l-5.4,3.1c-1.5,0.9-1.6,2.3-0.2,3.1l17.4,10.1
									c1.4,0.8,3.8,0.7,5.3-0.1l5.4-3.1C513.4,460.8,513.5,459.4,512.1,458.6z"/>
								<path class="st3" d="M547.1,478.8l-17.4-10.1c-1.4-0.8-3.8-0.7-5.3,0.1L519,472c-1.5,0.9-1.6,2.3-0.2,3.1l17.4,10.1
									c1.4,0.8,3.8,0.7,5.3-0.1l5.4-3.1C548.4,481,548.5,479.6,547.1,478.8z"/>
								<path class="st3" d="M573.8,494.2l-17.4-10.1c-1.4-0.8-3.8-0.7-5.3,0.1l-5.4,3.1c-1.5,0.9-1.6,2.3-0.2,3.1l17.4,10.1
									c1.4,0.8,3.8,0.7,5.3-0.1l5.4-3.1C575.1,496.4,575.2,495,573.8,494.2z"/>
								<path class="st3" d="M600.4,509.6L583,499.5c-1.4-0.8-3.8-0.7-5.3,0.1l-5.4,3.1c-1.5,0.9-1.6,2.3-0.2,3.1l17.4,10.1
									c1.4,0.8,3.8,0.7,5.3-0.1l5.4-3.1C601.7,511.8,601.8,510.4,600.4,509.6z"/>
								<path class="st3" d="M627.1,525l-17.4-10.1c-1.4-0.8-3.8-0.7-5.3,0.1l-5.4,3.1c-1.5,0.9-1.6,2.3-0.2,3.1l17.4,10.1
									c1.4,0.8,3.8,0.7,5.3-0.1l5.4-3.1C628.4,527.2,628.5,525.8,627.1,525z"/>
								<path class="st3" d="M776,611l-17.4-10.1c-1.4-0.8-3.8-0.7-5.3,0.1l-5.4,3.1c-1.5,0.9-1.6,2.3-0.2,3.1l17.4,10.1
									c1.4,0.8,3.8,0.7,5.3-0.1l5.4-3.1C777.3,613.2,777.4,611.8,776,611z"/>
								<path class="st3" d="M802.7,626.4l-17.4-10.1c-1.4-0.8-3.8-0.7-5.3,0.1l-5.4,3.1c-1.5,0.9-1.6,2.3-0.2,3.1l17.4,10.1
									c1.4,0.8,3.8,0.7,5.3-0.1l5.4-3.1C804,628.6,804.1,627.2,802.7,626.4z"/>
								<path class="st3" d="M829.4,641.8l-17.4-10.1c-1.4-0.8-3.8-0.7-5.3,0.1l-5.4,3.1c-1.5,0.9-1.6,2.3-0.2,3.1l17.4,10.1
									c1.4,0.8,3.8,0.7,5.3-0.1l5.4-3.1C830.7,644,830.8,642.6,829.4,641.8z"/>
								<path class="st3" d="M856,657.2l-17.4-10.1c-1.4-0.8-3.8-0.7-5.3,0.1l-5.4,3.1c-1.5,0.9-1.6,2.3-0.2,3.1l17.4,10.1
									c1.4,0.8,3.8,0.7,5.3-0.1l5.4-3.1C857.3,659.4,857.4,658,856,657.2z"/>
								<path class="st3" d="M645.3,505.4l-17.4-10.1c-1.4-0.8-3.8-0.7-5.3,0.1l-16.3,9.5c-1.5,0.9-1.6,2.3-0.2,3.1l17.4,10.1
									c1.4,0.8,3.8,0.7,5.3-0.1l16.3-9.5C646.6,507.6,646.7,506.2,645.3,505.4z"/>
								<path class="st3" d="M672.3,521l-17.4-10.1c-1.4-0.8-3.8-0.7-5.3,0.1l-16.3,9.5c-1.5,0.9-1.6,2.3-0.2,3.1l17.4,10.1
									c1.4,0.8,3.8,0.7,5.3-0.1L672,524C673.6,523.1,673.7,521.8,672.3,521z"/>
								<path class="st3" d="M699.2,536.5l-17.4-10.1c-1.4-0.8-3.8-0.7-5.3,0.1l-16.3,9.5c-1.5,0.9-1.6,2.3-0.2,3.1l17.4,10.1
									c1.4,0.8,3.8,0.7,5.3-0.1l16.3-9.5C700.5,538.7,700.6,537.3,699.2,536.5z"/>
								<path class="st3" d="M726.1,552L708.7,542c-1.4-0.8-3.8-0.7-5.3,0.1l-16.3,9.5c-1.5,0.9-1.6,2.3-0.2,3.1l17.4,10.1
									c1.4,0.8,3.8,0.7,5.3-0.1l16.3-9.5C727.4,554.2,727.5,552.8,726.1,552z"/>
								<path class="st3" d="M753,567.6l-17.4-10.1c-1.4-0.8-3.8-0.7-5.3,0.1l-16.3,9.5c-1.5,0.9-1.6,2.3-0.2,3.1l17.4,10.1
									c1.4,0.8,3.8,0.7,5.3-0.1l16.3-9.5C754.3,569.8,754.4,568.4,753,567.6z"/>
								<path class="st3" d="M779.9,583.1l-17.4-10.1c-1.4-0.8-3.8-0.7-5.3,0.1l-16.3,9.5c-1.5,0.9-1.6,2.3-0.2,3.1l17.4,10.1
									c1.4,0.8,3.8,0.7,5.3-0.1l16.3-9.5C781.2,585.3,781.3,583.9,779.9,583.1z"/>
								<path class="st3" d="M806.9,598.7l-17.4-10.1c-1.4-0.8-3.8-0.7-5.3,0.1l-16.3,9.5c-1.5,0.9-1.6,2.3-0.2,3.1l17.4,10.1
									c1.4,0.8,3.8,0.7,5.3-0.1l16.3-9.5C808.2,600.9,808.3,599.5,806.9,598.7z"/>
								<path class="st3" d="M833.8,614.2l-17.4-10.1c-1.4-0.8-3.8-0.7-5.3,0.1l-16.3,9.5c-1.5,0.9-1.6,2.3-0.2,3.1l17.4,10.1
									c1.4,0.8,3.8,0.7,5.3-0.1l16.3-9.5C835.1,616.4,835.2,615,833.8,614.2z"/>
								<path class="st3" d="M860.7,629.8l-17.4-10.1c-1.4-0.8-3.8-0.7-5.3,0.1l-16.3,9.5c-1.5,0.9-1.6,2.3-0.2,3.1l17.4,10.1
									c1.4,0.8,3.8,0.7,5.3-0.1l16.3-9.5C862,631.9,862.1,630.6,860.7,629.8z"/>
								<path class="st3" d="M644.1,418.7l-51.3-29.6c-1.4-0.8-3.8-0.7-5.3,0.1l-16.3,9.5c-1.5,0.9-1.6,2.3-0.2,3.1l51.3,29.6
									c1.4,0.8,3.8,0.7,5.3-0.1l16.3-9.5C645.4,420.9,645.5,419.5,644.1,418.7z"/>
								<path class="st3" d="M974.8,609.6L923.5,580c-1.4-0.8-3.8-0.7-5.3,0.1l-16.3,9.5c-1.5,0.9-1.6,2.3-0.2,3.1l51.3,29.6
									c1.4,0.8,3.8,0.7,5.3-0.1l16.3-9.5C976.1,611.8,976.2,610.4,974.8,609.6z"/>
								<path class="st3" d="M924.9,548.3l-17.4-10.1c-1.4-0.8-3.8-0.7-5.3,0.1l-19.4,11.3c-1.5,0.9-1.6,2.3-0.2,3.1l17.4,10.1
									c1.4,0.8,3.8,0.7,5.3-0.1l19.4-11.3C926.2,550.5,926.3,549.1,924.9,548.3z"/>
								<path class="st3" d="M729.4,435.4l-27.9-16.1c-1.4-0.8-3.8-0.7-5.3,0.1l-19.4,11.3c-1.5,0.9-1.6,2.3-0.2,3.1l27.9,16.1
									c1.4,0.8,3.8,0.7,5.3-0.1l19.4-11.3C730.7,437.6,730.8,436.2,729.4,435.4z"/>
								<path class="st3" d="M898.9,533.3L871,517.2c-1.4-0.8-3.8-0.7-5.3,0.1l-19.4,11.3c-1.5,0.9-1.6,2.3-0.2,3.1l27.9,16.1
									c1.4,0.8,3.8,0.7,5.3-0.1l19.4-11.3C900.2,535.5,900.3,534.1,898.9,533.3z"/>
								<path class="st3" d="M768.2,457.8l-27.9-16.1c-1.4-0.8-3.8-0.7-5.3,0.1l-19.4,11.3c-1.5,0.9-1.6,2.3-0.2,3.1l27.9,16.1
									c1.4,0.8,3.8,0.7,5.3-0.1l19.4-11.3C769.5,460,769.6,458.7,768.2,457.8z"/>
								<path class="st3" d="M715.6,456.4l121.2,70c1.5,0.9,3.9,0.9,5.3,0.1l19.8-11.5c1.4-0.8,1.3-2.2-0.2-3.1l-121.2-70
									L715.6,456.4z"/>
								<path class="st3" d="M974.4,591.4l19.4,11.2c1.1,0.7,3.1,0.6,4.3-0.1l7.9-4.6c1.2-0.7,1.3-1.9,0.2-2.5l-19.4-11.2
									c-1.1-0.7-3.1-0.6-4.3,0.1l-7.9,4.6C973.4,589.6,973.3,590.7,974.4,591.4z"/>
								<path class="st3" d="M947.3,575.7l19.4,11.2c1.1,0.7,3.1,0.6,4.3-0.1l7.9-4.6c1.2-0.7,1.3-1.9,0.2-2.5l-19.4-11.2
									c-1.1-0.7-3.1-0.6-4.3,0.1l-7.9,4.6C946.2,573.9,946.2,575,947.3,575.7z"/>
								<path class="st3" d="M920.4,560.2l19.4,11.2c1.1,0.7,3.1,0.6,4.3-0.1l7.9-4.6c1.2-0.7,1.3-1.9,0.2-2.5l-19.4-11.2
									c-1.1-0.7-3.1-0.6-4.3,0.1l-7.9,4.6C919.3,558.4,919.2,559.5,920.4,560.2z"/>
								<path class="st3" d="M933.3,583.9l19.4,11.2c1.1,0.7,3.1,0.6,4.3-0.1l7.9-4.6c1.2-0.7,1.3-1.9,0.2-2.5l-19.4-11.2
									c-1.1-0.7-3.1-0.6-4.3,0.1l-7.9,4.6C932.2,582.1,932.2,583.2,933.3,583.9z"/>
							</g>
						</g>
					</g>
				</g>
				<g class="st14">
					<path class="st3" d="M258.8,599.3l-17.3-10c-1.4-0.8-1.2-2.2,0.4-3.1l20.4-11.8c1.6-0.9,4-1,5.4-0.2l17.3,10
						c1.4,0.8,1.2,2.2-0.4,3.1l-20.4,11.8C262.6,600,260.2,600.1,258.8,599.3z"/>
					<path class="st3" d="M285.4,614.7l-17.3-10c-1.4-0.8-1.2-2.2,0.4-3.1l20.4-11.8c1.6-0.9,4-1,5.4-0.2l17.3,10
						c1.4,0.8,1.2,2.2-0.4,3.1l-20.4,11.8C289.2,615.4,286.8,615.5,285.4,614.7z"/>
					<path class="st3" d="M312.1,630.1l-17.3-10c-1.4-0.8-1.2-2.2,0.4-3.1l20.4-11.8c1.6-0.9,4-1,5.4-0.2l17.3,10
						c1.4,0.8,1.2,2.2-0.4,3.1l-20.4,11.8C315.9,630.8,313.5,630.9,312.1,630.1z"/>
					<path class="st3" d="M349,617.4l-17.3-10c-1.4-0.8-1.2-2.2,0.4-3.1l17.1-9.9c1.6-0.9,4-1,5.4-0.2l17.3,10
						c1.4,0.8,1.2,2.2-0.4,3.1l-17.1,9.9C352.8,618.1,350.3,618.2,349,617.4z"/>
					<path class="st3" d="M375.6,632.8l-17.3-10c-1.4-0.8-1.2-2.2,0.4-3.1l17.1-9.9c1.6-0.9,4-1,5.4-0.2l17.3,10
						c1.4,0.8,1.2,2.2-0.4,3.1l-17.1,9.9C379.4,633.5,377,633.6,375.6,632.8z"/>
					<path class="st3" d="M402.3,648.2l-17.3-10c-1.4-0.8-1.2-2.2,0.4-3.1l17.1-9.9c1.6-0.9,4-1,5.4-0.2l17.3,10
						c1.4,0.8,1.2,2.2-0.4,3.1l-17.1,9.9C406.1,648.9,403.7,649,402.3,648.2z"/>
					<path class="st3" d="M428.9,663.6l-17.3-10c-1.4-0.8-1.2-2.2,0.4-3.1l17.1-9.9c1.6-0.9,4-1,5.4-0.2l17.3,10
						c1.4,0.8,1.2,2.2-0.4,3.1l-17.1,9.9C432.7,664.3,430.3,664.4,428.9,663.6z"/>
					<path class="st3" d="M455.6,679l-17.3-10c-1.4-0.8-1.2-2.2,0.4-3.1l17.1-9.9c1.6-0.9,4-1,5.4-0.2l17.3,10
						c1.4,0.8,1.2,2.2-0.4,3.1l-17.1,9.9C459.4,679.7,457,679.8,455.6,679z"/>
					<path class="st3" d="M482.3,694.4l-17.3-10c-1.4-0.8-1.2-2.2,0.4-3.1l17.1-9.9c1.6-0.9,4-1,5.4-0.2l17.3,10
						c1.4,0.8,1.2,2.2-0.4,3.1l-17.1,9.9C486.1,695.1,483.7,695.2,482.3,694.4z"/>
					<path class="st3" d="M508.9,709.8l-17.3-10c-1.4-0.8-1.2-2.2,0.4-3.1l17.1-9.9c1.6-0.9,4-1,5.4-0.2l17.3,10
						c1.4,0.8,1.2,2.2-0.4,3.1l-17.1,9.9C512.7,710.5,510.3,710.6,508.9,709.8z"/>
					<path class="st3" d="M535.6,725.1l-17.3-10c-1.4-0.8-1.2-2.2,0.4-3.1l17.1-9.9c1.6-0.9,4-1,5.4-0.2l17.3,10
						c1.4,0.8,1.2,2.2-0.4,3.1l-17.1,9.9C539.4,725.8,537,725.9,535.6,725.1z"/>
					<path class="st3" d="M562.2,740.5l-17.3-10c-1.4-0.8-1.2-2.2,0.4-3.1l17.1-9.9c1.6-0.9,4-1,5.4-0.2l17.3,10
						c1.4,0.8,1.2,2.2-0.4,3.1l-17.1,9.9C566.1,741.2,563.6,741.3,562.2,740.5z"/>
					<path class="st3" d="M588.9,755.9l-17.3-10c-1.4-0.8-1.2-2.2,0.4-3.1l17.1-9.9c1.6-0.9,4-1,5.4-0.2l17.3,10
						c1.4,0.8,1.2,2.2-0.4,3.1l-17.1,9.9C592.7,756.6,590.3,756.7,588.9,755.9z"/>
					<path class="st3" d="M388.2,610.1l-17.3-10c-1.4-0.8-1.2-2.2,0.4-3.1l17.1-9.9c1.6-0.9,4-1,5.4-0.2l17.3,10
						c1.4,0.8,1.2,2.2-0.4,3.1l-17.1,9.9C392.1,610.8,389.6,610.9,388.2,610.1z"/>
					<path class="st3" d="M361.2,594.5l-17.3-10c-1.4-0.8-1.2-2.2,0.4-3.1l17.1-9.9c1.6-0.9,4-1,5.4-0.2l17.3,10
						c1.4,0.8,1.2,2.2-0.4,3.1l-17.1,9.9C365,595.2,362.6,595.3,361.2,594.5z"/>
					<path class="st3" d="M334.1,578.8l-37.2-21.5c-1.4-0.8-1.2-2.2,0.4-3.1l17.1-9.9c1.6-0.9,4-1,5.4-0.2l37.2,21.5
						c1.4,0.8,1.2,2.2-0.4,3.1l-17.1,9.9C337.9,579.5,335.5,579.6,334.1,578.8z"/>
					<path class="st3" d="M353,559.8l-30.2-17.4c-1.4-0.8-1.2-2.2,0.4-3.1l17.1-9.9c1.6-0.9,4-1,5.4-0.2l30.2,17.4
						c1.4,0.8,1.2,2.2-0.4,3.1l-17.1,9.9C356.8,560.5,354.4,560.6,353,559.8z"/>
					<path class="st3" d="M414.9,625.5l-17.3-10c-1.4-0.8-1.2-2.2,0.4-3.1l17.1-9.9c1.6-0.9,4-1,5.4-0.2l17.3,10
						c1.4,0.8,1.2,2.2-0.4,3.1l-17.1,9.9C418.7,626.2,416.3,626.3,414.9,625.5z"/>
					<path class="st3" d="M441.6,640.9l-17.3-10c-1.4-0.8-1.2-2.2,0.4-3.1l17.1-9.9c1.6-0.9,4-1,5.4-0.2l17.3,10
						c1.4,0.8,1.2,2.2-0.4,3.1l-17.1,9.9C445.4,641.6,443,641.7,441.6,640.9z"/>
					<path class="st3" d="M468.2,656.3l-17.3-10c-1.4-0.8-1.2-2.2,0.4-3.1l17.1-9.9c1.6-0.9,4-1,5.4-0.2l17.3,10
						c1.4,0.8,1.2,2.2-0.4,3.1l-17.1,9.9C472,657,469.6,657.1,468.2,656.3z"/>
					<path class="st3" d="M494.9,671.7l-17.3-10c-1.4-0.8-1.2-2.2,0.4-3.1l17.1-9.9c1.6-0.9,4-1,5.4-0.2l17.3,10
						c1.4,0.8,1.2,2.2-0.4,3.1l-17.1,9.9C498.7,672.4,496.3,672.5,494.9,671.7z"/>
					<path class="st3" d="M521.5,687.1l-17.3-10c-1.4-0.8-1.2-2.2,0.4-3.1l17.1-9.9c1.6-0.9,4-1,5.4-0.2l17.3,10
						c1.4,0.8,1.2,2.2-0.4,3.1l-17.1,9.9C525.4,687.8,522.9,687.9,521.5,687.1z"/>
					<path class="st3" d="M548.2,702.5l-17.3-10c-1.4-0.8-1.2-2.2,0.4-3.1l17.1-9.9c1.6-0.9,4-1,5.4-0.2l17.3,10
						c1.4,0.8,1.2,2.2-0.4,3.1l-17.1,9.9C552,703.2,549.6,703.3,548.2,702.5z"/>
					<path class="st3" d="M574.9,717.9l-17.3-10c-1.4-0.8-1.2-2.2,0.4-3.1l17.1-9.9c1.6-0.9,4-1,5.4-0.2l17.3,10
						c1.4,0.8,1.2,2.2-0.4,3.1l-17.1,9.9C578.7,718.6,576.3,718.7,574.9,717.9z"/>
					<path class="st3" d="M601.5,733.2l-17.3-10c-1.4-0.8-1.2-2.2,0.4-3.1l17.1-9.9c1.6-0.9,4-1,5.4-0.2l17.3,10
						c1.4,0.8,1.2,2.2-0.4,3.1l-17.1,9.9C605.3,733.9,602.9,734,601.5,733.2z"/>
					<path class="st3" d="M628.2,748.6l-17.3-10c-1.4-0.8-1.2-2.2,0.4-3.1l17.1-9.9c1.6-0.9,4-1,5.4-0.2l17.3,10
						c1.4,0.8,1.2,2.2-0.4,3.1l-17.1,9.9C632,749.3,629.6,749.4,628.2,748.6z"/>
					<path class="st3" d="M675.6,776l-37.7-21.7c-1.4-0.8-1.2-2.2,0.4-3.1l17.1-9.9c1.6-0.9,4-1,5.4-0.2l37.7,21.7
						c1.4,0.8,1.2,2.2-0.4,3.1l-17.1,9.9C679.4,776.7,677,776.8,675.6,776z"/>
					<path class="st3" d="M727.5,746l-31.8-18.4c-1.4-0.8-1.2-2.2,0.4-3.1l17.1-9.9c1.6-0.9,4-1,5.4-0.2l31.8,18.4
						c1.4,0.8,1.2,2.2-0.4,3.1l-17.1,9.9C731.3,746.7,728.9,746.8,727.5,746z"/>
					<path class="st3" d="M461.6,622.5l-17.3-10c-1.4-0.8-1.2-2.2,0.4-3.1l17.1-9.9c1.6-0.9,4-1,5.4-0.2l17.3,10
						c1.4,0.8,1.2,2.2-0.4,3.1l-17.1,9.9C465.4,623.2,463,623.3,461.6,622.5z"/>
					<path class="st3" d="M434.3,606.7l-17.3-10c-1.4-0.8-1.2-2.2,0.4-3.1l17.1-9.9c1.6-0.9,4-1,5.4-0.2l17.3,10
						c1.4,0.8,1.2,2.2-0.4,3.1l-17.1,9.9C438.1,607.4,435.7,607.5,434.3,606.7z"/>
					<path class="st3" d="M406.9,590.9l-17.3-10c-1.4-0.8-1.2-2.2,0.4-3.1l17.1-9.9c1.6-0.9,4-1,5.4-0.2l17.3,10
						c1.4,0.8,1.2,2.2-0.4,3.1l-17.1,9.9C410.8,591.6,408.3,591.7,406.9,590.9z"/>
					<path class="st3" d="M379.6,575.2l-17.3-10c-1.4-0.8-1.2-2.2,0.4-3.1l17.1-9.9c1.6-0.9,4-1,5.4-0.2l17.3,10
						c1.4,0.8,1.2,2.2-0.4,3.1l-17.1,9.9C383.4,575.9,381,576,379.6,575.2z"/>
					<path class="st3" d="M488.3,637.9l-17.3-10c-1.4-0.8-1.2-2.2,0.4-3.1l17.1-9.9c1.6-0.9,4-1,5.4-0.2l17.3,10
						c1.4,0.8,1.2,2.2-0.4,3.1l-17.1,9.9C492.1,638.6,489.6,638.7,488.3,637.9z"/>
					<path class="st3" d="M514.9,653.3l-17.3-10c-1.4-0.8-1.2-2.2,0.4-3.1l17.1-9.9c1.6-0.9,4-1,5.4-0.2l17.3,10
						c1.4,0.8,1.2,2.2-0.4,3.1l-17.1,9.9C518.7,654,516.3,654.1,514.9,653.3z"/>
					<path class="st3" d="M541.6,668.7l-17.3-10c-1.4-0.8-1.2-2.2,0.4-3.1l17.1-9.9c1.6-0.9,4-1,5.4-0.2l17.3,10
						c1.4,0.8,1.2,2.2-0.4,3.1l-17.1,9.9C545.4,669.4,543,669.5,541.6,668.7z"/>
					<path class="st3" d="M568.2,684.1l-17.3-10c-1.4-0.8-1.2-2.2,0.4-3.1l17.1-9.9c1.6-0.9,4-1,5.4-0.2l17.3,10
						c1.4,0.8,1.2,2.2-0.4,3.1l-17.1,9.9C572,684.8,569.6,684.9,568.2,684.1z"/>
					<path class="st3" d="M594.9,699.5l-17.3-10c-1.4-0.8-1.2-2.2,0.4-3.1l17.1-9.9c1.6-0.9,4-1,5.4-0.2l17.3,10
						c1.4,0.8,1.2,2.2-0.4,3.1l-17.1,9.9C598.7,700.2,596.3,700.3,594.9,699.5z"/>
					<path class="st3" d="M621.6,714.8l-17.3-10c-1.4-0.8-1.2-2.2,0.4-3.1l17.1-9.9c1.6-0.9,4-1,5.4-0.2l17.3,10
						c1.4,0.8,1.2,2.2-0.4,3.1l-17.1,9.9C625.4,715.5,622.9,715.6,621.6,714.8z"/>
					<path class="st3" d="M648.2,730.2l-17.3-10c-1.4-0.8-1.2-2.2,0.4-3.1l17.1-9.9c1.6-0.9,4-1,5.4-0.2l17.3,10
						c1.4,0.8,1.2,2.2-0.4,3.1l-17.1,9.9C652,730.9,649.6,731,648.2,730.2z"/>
					<path class="st3" d="M674.9,745.6l-17.3-10c-1.4-0.8-1.2-2.2,0.4-3.1l17.1-9.9c1.6-0.9,4-1,5.4-0.2l17.3,10
						c1.4,0.8,1.2,2.2-0.4,3.1l-17.1,9.9C678.7,746.3,676.3,746.4,674.9,745.6z"/>
					<path class="st3" d="M701.5,761l-17.3-10c-1.4-0.8-1.2-2.2,0.4-3.1l17.1-9.9c1.6-0.9,4-1,5.4-0.2l17.3,10
						c1.4,0.8,1.2,2.2-0.4,3.1l-17.1,9.9C705.3,761.7,702.9,761.8,701.5,761z"/>
					<path class="st3" d="M447.6,584.4l-17.3-10c-1.4-0.8-1.2-2.2,0.4-3.1l17.1-9.9c1.6-0.9,4-1,5.4-0.2l17.3,10
						c1.4,0.8,1.2,2.2-0.4,3.1l-17.1,9.9C451.4,585.1,448.9,585.2,447.6,584.4z"/>
					<path class="st3" d="M421,569.1l-17.3-10c-1.4-0.8-1.2-2.2,0.4-3.1l17.1-9.9c1.6-0.9,4-1,5.4-0.2l17.3,10
						c1.4,0.8,1.2,2.2-0.4,3.1l-17.1,9.9C424.8,569.8,422.4,569.9,421,569.1z"/>
					<path class="st3" d="M394.5,553.8l-17.3-10c-1.4-0.8-1.2-2.2,0.4-3.1l17.1-9.9c1.6-0.9,4-1,5.4-0.2l17.3,10
						c1.4,0.8,1.2,2.2-0.4,3.1l-17.1,9.9C398.3,554.5,395.9,554.6,394.5,553.8z"/>
					<path class="st3" d="M368,538.5l-17.3-10c-1.4-0.8-1.2-2.2,0.4-3.1l17.1-9.9c1.6-0.9,4-1,5.4-0.2l17.3,10
						c1.4,0.8,1.2,2.2-0.4,3.1l-17.1,9.9C371.8,539.2,369.4,539.3,368,538.5z"/>
					<path class="st3" d="M395.2,522.7l-17.3-10c-1.4-0.8-1.2-2.2,0.4-3.1l5.7-3.3c1.6-0.9,4-1,5.4-0.2l17.3,10
						c1.4,0.8,1.2,2.2-0.4,3.1l-5.7,3.3C399.1,523.4,396.6,523.5,395.2,522.7z"/>
					<path class="st3" d="M429.9,542.7l-17.3-10c-1.4-0.8-1.2-2.2,0.4-3.1l5.7-3.3c1.6-0.9,4-1,5.4-0.2l17.3,10
						c1.4,0.8,1.2,2.2-0.4,3.1l-5.7,3.3C433.7,543.4,431.3,543.5,429.9,542.7z"/>
					<path class="st3" d="M456.3,558L439,548c-1.4-0.8-1.2-2.2,0.4-3.1l5.7-3.3c1.6-0.9,4-1,5.4-0.2l17.3,10
						c1.4,0.8,1.2,2.2-0.4,3.1l-5.7,3.3C460.1,558.7,457.7,558.8,456.3,558z"/>
					<path class="st3" d="M482.7,573.2l-17.3-10c-1.4-0.8-1.2-2.2,0.4-3.1l5.7-3.3c1.6-0.9,4-1,5.4-0.2l17.3,10
						c1.4,0.8,1.2,2.2-0.4,3.1l-5.7,3.3C486.5,573.9,484.1,574,482.7,573.2z"/>
					<path class="st3" d="M509.1,588.5l-17.3-10c-1.4-0.8-1.2-2.2,0.4-3.1l5.7-3.3c1.6-0.9,4-1,5.4-0.2l17.3,10
						c1.4,0.8,1.2,2.2-0.4,3.1l-5.7,3.3C512.9,589.2,510.5,589.3,509.1,588.5z"/>
					<path class="st3" d="M656.6,673.6l-17.3-10c-1.4-0.8-1.2-2.2,0.4-3.1l5.7-3.3c1.6-0.9,4-1,5.4-0.2l17.3,10
						c1.4,0.8,1.2,2.2-0.4,3.1l-5.7,3.3C660.4,674.3,658,674.4,656.6,673.6z"/>
					<path class="st3" d="M683,688.9l-17.3-10c-1.4-0.8-1.2-2.2,0.4-3.1l5.7-3.3c1.6-0.9,4-1,5.4-0.2l17.3,10
						c1.4,0.8,1.2,2.2-0.4,3.1l-5.7,3.3C686.8,689.6,684.4,689.7,683,688.9z"/>
					<path class="st3" d="M709.4,704.1l-17.3-10c-1.4-0.8-1.2-2.2,0.4-3.1l5.7-3.3c1.6-0.9,4-1,5.4-0.2l17.3,10
						c1.4,0.8,1.2,2.2-0.4,3.1l-5.7,3.3C713.3,704.8,710.8,704.9,709.4,704.1z"/>
					<path class="st3" d="M735.9,719.4l-17.3-10c-1.4-0.8-1.2-2.2,0.4-3.1l5.7-3.3c1.6-0.9,4-1,5.4-0.2l17.3,10
						c1.4,0.8,1.2,2.2-0.4,3.1l-5.7,3.3C739.7,720.1,737.2,720.2,735.9,719.4z"/>
					<path class="st3" d="M474.2,599.8l-17.3-10c-1.4-0.8-1.2-2.2,0.4-3.1l17.1-9.9c1.6-0.9,4-1,5.4-0.2l17.3,10
						c1.4,0.8,1.2,2.2-0.4,3.1l-17.1,9.9C478,600.5,475.6,600.6,474.2,599.8z"/>
					<path class="st3" d="M500.9,615.2l-17.3-10c-1.4-0.8-1.2-2.2,0.4-3.1l17.1-9.9c1.6-0.9,4-1,5.4-0.2l17.3,10
						c1.4,0.8,1.2,2.2-0.4,3.1l-17.1,9.9C504.7,615.9,502.3,616,500.9,615.2z"/>
					<path class="st3" d="M527.5,630.6l-17.3-10c-1.4-0.8-1.2-2.2,0.4-3.1l17.1-9.9c1.6-0.9,4-1,5.4-0.2l17.3,10
						c1.4,0.8,1.2,2.2-0.4,3.1l-17.1,9.9C531.3,631.3,528.9,631.4,527.5,630.6z"/>
					<path class="st3" d="M554.2,646l-17.3-10c-1.4-0.8-1.2-2.2,0.4-3.1l17.1-9.9c1.6-0.9,4-1,5.4-0.2l17.3,10
						c1.4,0.8,1.2,2.2-0.4,3.1l-17.1,9.9C558,646.7,555.6,646.8,554.2,646z"/>
					<path class="st3" d="M580.9,661.4l-17.3-10c-1.4-0.8-1.2-2.2,0.4-3.1l17.1-9.9c1.6-0.9,4-1,5.4-0.2l17.3,10
						c1.4,0.8,1.2,2.2-0.4,3.1l-17.1,9.9C584.7,662.1,582.2,662.2,580.9,661.4z"/>
					<path class="st3" d="M607.5,676.8l-17.3-10c-1.4-0.8-1.2-2.2,0.4-3.1l17.1-9.9c1.6-0.9,4-1,5.4-0.2l17.3,10
						c1.4,0.8,1.2,2.2-0.4,3.1l-17.1,9.9C611.3,677.5,608.9,677.6,607.5,676.8z"/>
					<path class="st3" d="M634.2,692.2l-17.3-10c-1.4-0.8-1.2-2.2,0.4-3.1l17.1-9.9c1.6-0.9,4-1,5.4-0.2l17.3,10
						c1.4,0.8,1.2,2.2-0.4,3.1l-17.1,9.9C638,692.9,635.6,693,634.2,692.2z"/>
					<path class="st3" d="M660.8,707.6l-17.3-10c-1.4-0.8-1.2-2.2,0.4-3.1l17.1-9.9c1.6-0.9,4-1,5.4-0.2l17.3,10
						c1.4,0.8,1.2,2.2-0.4,3.1l-17.1,9.9C664.6,708.3,662.2,708.4,660.8,707.6z"/>
					<path class="st3" d="M687.5,722.9l-17.3-10c-1.4-0.8-1.2-2.2,0.4-3.1l17.1-9.9c1.6-0.9,4-1,5.4-0.2l17.3,10
						c1.4,0.8,1.2,2.2-0.4,3.1l-17.1,9.9C691.3,723.6,688.9,723.7,687.5,722.9z"/>
					<path class="st3" d="M321.8,601.7l-50.8-29.4c-1.4-0.8-1.2-2.2,0.4-3.1l17.1-9.9c1.6-0.9,4-1,5.4-0.2l50.8,29.4
						c1.4,0.8,1.2,2.2-0.4,3.1l-17.1,9.9C325.6,602.4,323.2,602.5,321.8,601.7z"/>
					<path class="st3" d="M649.3,790.8l-50.8-29.4c-1.4-0.8-1.2-2.2,0.4-3.1l17.1-9.9c1.6-0.9,4-1,5.4-0.2l50.8,29.4
						c1.4,0.8,1.2,2.2-0.4,3.1l-17.1,9.9C653.1,791.5,650.7,791.6,649.3,790.8z"/>
					<path class="st3" d="M542.7,763.3l-17.3-10c-1.4-0.8-1.2-2.2,0.4-3.1l20.4-11.8c1.6-0.9,4-1,5.4-0.2l17.3,10
						c1.4,0.8,1.2,2.2-0.4,3.1L548.1,763C546.5,764,544.1,764.1,542.7,763.3z"/>
					<path class="st3" d="M349.1,651.5l-27.6-15.9c-1.4-0.8-1.2-2.2,0.4-3.1l20.4-11.8c1.6-0.9,4-1,5.4-0.2l27.6,15.9
						c1.4,0.8,1.2,2.2-0.4,3.1l-20.4,11.8C352.9,652.2,350.5,652.3,349.1,651.5z"/>
					<path class="st3" d="M517,748.4l-27.6-15.9c-1.4-0.8-1.2-2.2,0.4-3.1l20.4-11.8c1.6-0.9,4-1,5.4-0.2l27.6,15.9
						c1.4,0.8,1.2,2.2-0.4,3.1l-20.4,11.8C520.8,749.1,518.4,749.2,517,748.4z"/>
					<path class="st3" d="M387.6,673.7l-27.6-15.9c-1.4-0.8-1.2-2.2,0.4-3.1l20.4-11.8c1.6-0.9,4-1,5.4-0.2l27.6,15.9
						c1.4,0.8,1.2,2.2-0.4,3.1L393,673.5C391.4,674.4,388.9,674.5,387.6,673.7z"/>
					<path class="st3" d="M386.3,642.7l120,69.3c1.5,0.9,1.5,2.3,0,3.1l-20.8,12c-1.5,0.9-3.9,0.9-5.4,0l-120-69.3L386.3,642.7z"/>
					<path class="st3" d="M617.2,791.2l19.2,11.1c1.1,0.7,1,1.8-0.3,2.6l-8.3,4.8c-1.3,0.8-3.3,0.8-4.4,0.2l-19.2-11.1
						c-1.1-0.7-1-1.8,0.3-2.6l8.3-4.8C614.1,790.6,616.1,790.5,617.2,791.2z"/>
					<path class="st3" d="M590.3,775.6l19.2,11.1c1.1,0.7,1,1.8-0.3,2.6l-8.3,4.8c-1.3,0.8-3.3,0.8-4.4,0.2l-19.2-11.1
						c-1.1-0.7-1-1.8,0.3-2.6l8.3-4.8C587.2,775.1,589.2,775,590.3,775.6z"/>
					<path class="st3" d="M563.7,760.2l19.2,11.1c1.1,0.7,1,1.8-0.3,2.6l-8.3,4.8c-1.3,0.8-3.3,0.8-4.4,0.2l-19.2-11.1
						c-1.1-0.7-1-1.8,0.3-2.6l8.3-4.8C560.6,759.7,562.5,759.6,563.7,760.2z"/>
					<path class="st3" d="M605.1,767.1l19.2,11.1c1.1,0.7,1,1.8-0.3,2.6l-8.3,4.8c-1.3,0.8-3.3,0.8-4.4,0.2L592,774.7
						c-1.1-0.7-1-1.8,0.3-2.6l8.3-4.8C601.9,766.6,603.9,766.5,605.1,767.1z"/>
				</g>
			</g>
			<g>
				<path class="st0" d="M877.1,352.3c-1.3,0-2.7-0.4-4-1.2c-4.1-2.4-6.6-7.7-5.6-11.9c0.5-2,1.7-3.5,3.4-4.3
					c1.9-0.8,4.2-0.6,6.4,0.7c4.1,2.4,6.6,7.7,5.6,11.9c-0.5,2-1.7,3.5-3.4,4.3C878.7,352.2,877.9,352.3,877.1,352.3z M873.2,336.4
					c-0.6,0-1.1,0.1-1.6,0.3c-1.2,0.5-2,1.6-2.3,3c-0.8,3.5,1.3,7.9,4.8,9.9c1.7,1,3.4,1.2,4.7,0.6c1.2-0.5,2-1.6,2.3-3
					c0.8-3.5-1.3-7.9-4.8-9.9C875.2,336.7,874.1,336.4,873.2,336.4z"/>
				<path class="st0" d="M899,365c-1.3,0-2.7-0.4-4-1.2c-4.1-2.4-6.6-7.7-5.6-11.9c0.5-2,1.7-3.5,3.4-4.3c1.9-0.8,4.2-0.6,6.4,0.7
					c4.1,2.4,6.6,7.7,5.6,11.9c-0.5,2-1.7,3.5-3.4,4.3C900.7,364.9,899.9,365,899,365z M895.1,349c-0.6,0-1.1,0.1-1.6,0.3
					c-1.2,0.5-2,1.6-2.3,3c-0.8,3.5,1.3,7.9,4.8,9.9c1.7,1,3.4,1.2,4.7,0.6c1.2-0.5,2-1.6,2.3-3c0.8-3.5-1.3-7.9-4.8-9.9
					C897.2,349.4,896.1,349,895.1,349z"/>
				<path class="st0" d="M925.9,372.7c-0.9,3.8-4.7,5.2-8.4,3c-3.8-2.2-6.1-7-5.2-10.9s4.7-5.2,8.4-3
					C924.4,364,926.8,368.9,925.9,372.7z"/>
			</g>
			<polygon class="st0" points="504.4,130.2 492.6,123.4 493.5,117.9 505.3,124.7 			"/>
			<polygon class="st0" points="521.5,140 509.7,133.2 510.6,127.8 522.4,134.6 			"/>
			<polygon class="st0" points="487.5,120.4 461.7,105.5 462.6,100.1 488.4,115 			"/>
		</g>
		<g>
			<g>
				<polygon class="st0" points="490.7,223 471,211.6 471.8,207.1 491.5,218.4 				"/>
				<polygon class="st0" points="507.5,232.7 497.7,227 498.4,222.4 508.3,228.1 				"/>
				<polygon class="st0" points="494.7,237 486.3,232.2 487.1,227.6 495.5,232.4 				"/>
				<polygon class="st0" points="508.8,245.1 498.9,239.4 499.7,234.9 509.5,240.6 				"/>
				<polygon class="st0" points="523.2,265.1 484.6,242.8 485.3,238.3 524,260.6 				"/>
				<polygon class="st0" points="489.7,354.4 451,332.1 451.8,327.6 490.5,349.9 				"/>
				<polygon class="st0" points="504.6,363 494.7,357.3 495.5,352.8 505.3,358.5 				"/>
				<polygon class="st0" points="491.1,258.3 482.8,253.5 483.5,248.9 491.9,253.8 				"/>
				<polygon class="st0" points="505.2,266.4 495.4,260.8 496.1,256.2 506,261.9 				"/>
				<polygon class="st0" points="502.2,276.4 481,264.2 481.7,259.6 503,271.9 				"/>
				<polygon class="st0" points="516.5,284.6 506.6,279 507.4,274.4 517.2,280.1 				"/>
				<polygon class="st0" points="530.8,292.9 520.9,287.2 521.7,282.7 531.5,288.3 				"/>
				<polygon class="st0" points="553.8,306.2 535.2,295.5 536,290.9 554.6,301.7 				"/>
				<polygon class="st0" points="539.1,321.1 529.3,315.4 530,310.9 539.9,316.6 				"/>
				<polygon class="st0" points="562.2,334.4 543.6,323.7 544.3,319.1 563,329.9 				"/>
				<polygon class="st0" points="487.2,291.2 477.4,285.5 478.2,280.9 488,286.6 				"/>
				<polygon class="st0" points="501.5,299.4 491.7,293.7 492.5,289.2 502.3,294.9 				"/>
				<polygon class="st0" points="524.6,312.7 506,302 506.8,297.4 525.4,308.2 				"/>
				<polygon class="st0" points="554.9,318.5 545,312.8 545.8,308.3 555.6,314 				"/>
				<polygon class="st0" points="569.2,326.8 559.3,321.1 560.1,316.5 569.9,322.2 				"/>
				<polygon class="st0" points="592.2,340.1 573.6,329.3 574.4,324.8 593,335.5 				"/>
				<polygon class="st0" points="520,371.9 510.1,366.2 510.9,361.7 520.7,367.4 				"/>
				<polygon class="st0" points="543,385.2 524.4,374.5 525.2,369.9 543.8,380.7 				"/>
				<polygon class="st0" points="483.7,312.5 473.8,306.8 474.6,302.3 484.4,307.9 				"/>
				<polygon class="st0" points="506.7,325.8 488.1,315.1 488.9,310.5 507.5,321.3 				"/>
				<polygon class="st0" points="530.7,389.8 520.8,384.1 521.6,379.6 531.4,385.2 				"/>
				<polygon class="st0" points="553.8,403.1 535.1,392.4 535.9,387.8 554.5,398.6 				"/>
				<polygon class="st0" points="552.6,282.1 542.8,276.4 543.6,271.9 553.4,277.6 				"/>
				<polygon class="st0" points="537.8,273.5 527.9,267.9 528.7,263.3 538.5,269 				"/>
				<polygon class="st0" points="575.7,295.5 557.1,284.7 557.9,280.2 576.5,290.9 				"/>
				<polygon class="st0" points="488.1,279.9 479.2,274.8 479.9,270.3 488.8,275.4 				"/>
				<polygon class="st0" points="514.4,295.1 492.8,282.7 493.6,278.1 515.2,290.6 				"/>
				<polygon class="st0" points="540.7,310.3 519.1,297.9 519.9,293.3 541.5,305.8 				"/>
				<polygon class="st0" points="589.4,303.3 580.5,298.2 581.3,293.7 590.1,298.8 				"/>
				<polygon class="st0" points="615.7,318.5 594.1,306.1 594.9,301.5 616.5,314 				"/>
				<polygon class="st0" points="642,333.7 620.5,321.3 621.2,316.7 642.8,329.2 				"/>
				<polygon class="st0" points="497.4,308.7 475.8,296.3 476.6,291.7 498.1,304.2 				"/>
				<polygon class="st0" points="508.8,315.3 502.1,311.5 502.9,306.9 509.5,310.7 				"/>
				<polygon class="st0" points="520.2,321.9 513.5,318 514.3,313.5 520.9,317.3 				"/>
				<polygon class="st0" points="541.2,334 524.9,324.6 525.7,320.1 542,329.5 				"/>
				<polygon class="st0" points="564.8,312.6 558.2,308.7 559,304.2 565.6,308 				"/>
				<polygon class="st0" points="585.9,324.7 569.6,315.3 570.4,310.8 586.7,320.2 				"/>
				<polygon class="st0" points="590.3,327.3 574,317.9 574.8,313.3 591.1,322.8 				"/>
				<polygon class="st0" points="503.6,385.8 482.3,373.6 483.1,369 504.3,381.3 				"/>
				<polygon class="st0" points="517.8,394 507.9,388.4 508.7,383.8 518.5,389.5 				"/>
				<polygon class="st0" points="532.1,402.3 522.2,396.6 523,392.1 532.9,397.7 				"/>
				<polygon class="st0" points="555.2,415.6 536.6,404.9 537.3,400.3 555.9,411.1 				"/>
				<polygon class="st0" points="569.9,424.1 560.1,418.5 560.9,413.9 570.7,419.6 				"/>
				<polygon class="st0" points="593,437.5 574.4,426.7 575.2,422.2 593.8,432.9 				"/>
				<polygon class="st0" points="522.2,420 512.4,414.3 513.1,409.8 523,415.4 				"/>
				<polygon class="st0" points="545.3,433.3 526.7,422.6 527.4,418 546.1,428.8 				"/>
				<polygon class="st0" points="470.8,390.3 461,384.6 461.7,380.1 471.6,385.8 				"/>
				<polygon class="st0" points="485.1,398.6 475.3,392.9 476,388.3 485.9,394 				"/>
				<polygon class="st0" points="508.2,411.9 489.6,401.2 490.3,396.6 509,407.4 				"/>
				<polygon class="st0" points="489.4,389.3 480.5,384.2 481.3,379.7 490.2,384.8 				"/>
				<polygon class="st0" points="515.7,404.5 494.1,392.1 494.9,387.5 516.5,400 				"/>
				<polygon class="st0" points="542,419.7 520.5,407.3 521.2,402.7 542.8,415.2 				"/>
				<polygon class="st0" points="463.6,397.8 442,385.4 442.7,380.8 464.3,393.3 				"/>
				<polygon class="st0" points="474.9,404.4 468.3,400.6 469.1,396 475.7,399.8 				"/>
				<polygon class="st0" points="486.3,411 479.7,407.1 480.5,402.6 487.1,406.4 				"/>
				<polygon class="st0" points="507.4,423.1 491.1,413.7 491.9,409.2 508.2,418.6 				"/>
				<polygon class="st0" points="511.8,425.7 495.5,416.3 496.3,411.7 512.6,421.1 				"/>
				<polygon class="st0" points="473.3,356.6 466.6,352.8 467.4,348.3 474,352.1 				"/>
				<polygon class="st0" points="494.4,368.8 478,359.4 478.8,354.8 495.1,364.3 				"/>
				<polygon class="st0" points="515.9,381.2 499.6,371.8 500.3,367.3 516.6,376.7 				"/>
				<polygon class="st0" points="598.8,452.5 589,446.9 589.8,442.3 599.6,448 				"/>
				<polygon class="st0" points="621.9,465.9 603.3,455.1 604.1,450.6 622.7,461.3 				"/>
				<polygon class="st0" points="562.5,431.6 546.2,422.2 547,417.6 563.3,427 				"/>
				<polygon class="st0" points="584.1,444 567.7,434.6 568.5,430 584.8,439.4 				"/>
				<polygon class="st0" points="461.8,311.5 455.1,307.7 455.9,303.2 462.5,307 				"/>
				<polygon class="st0" points="482.8,323.7 466.5,314.3 467.3,309.7 483.6,319.2 				"/>
				<polygon class="st0" points="504.4,336.1 488.1,326.7 488.8,322.2 505.1,331.6 				"/>
			</g>
			<path class="st0" d="M829.6,501.9c-1.5,0-3-0.4-4.6-1.3l-131.8-76.1c-5.4-3.1-8.9-11-7.8-17.5l8.4-50.3c0.6-3.4,2.3-6.1,4.8-7.2
				c2.3-1.1,5-0.9,7.6,0.6l131.8,76.1c5.4,3.1,8.8,11,7.8,17.5l-8.4,50.3c-0.6,3.4-2.3,6.1-4.8,7.2
				C831.7,501.7,830.7,501.9,829.6,501.9z M701.9,350.7c-0.8,0-1.6,0.2-2.3,0.5c-1.9,0.9-3.3,3.1-3.8,5.9l-8.4,50.3
				c-1,5.9,2.1,12.9,6.9,15.6L826,499c2.1,1.2,4.2,1.4,5.9,0.6c1.9-0.9,3.3-3.1,3.8-5.9l8.4-50.3c1-5.9-2.1-12.9-6.9-15.6
				l-131.8-76.1C704.3,351.1,703,350.7,701.9,350.7z"/>
			<path class="st0" d="M815.1,588.3c-1.5,0-3-0.4-4.6-1.3l-131.8-76.1c-5.4-3.1-8.8-11-7.8-17.5l8.4-50.3c0.6-3.4,2.3-6,4.8-7.2
				c2.3-1.1,5-0.9,7.6,0.6l131.8,76.1c5.4,3.1,8.8,11,7.8,17.5l-8.4,50.3c-0.6,3.4-2.3,6.1-4.8,7.2
				C817.2,588.1,816.2,588.3,815.1,588.3z M811.5,585.4c2.1,1.2,4.2,1.4,5.9,0.6c1.9-0.9,3.3-3.1,3.8-5.9l8.4-50.3
				c1-5.9-2.1-12.9-6.9-15.6L691,438.2c-2.1-1.2-4.2-1.4-5.9-0.6c-1.9,0.9-3.3,3.1-3.8,5.9l-8.4,50.3c-1,5.9,2.1,12.9,6.9,15.6
				L811.5,585.4z"/>
			
				<linearGradient id="SVGID_9_" gradientUnits="userSpaceOnUse" x1="863.6855" y1="404.4783" x2="1053.0144" y2="485.4766" gradientTransform="matrix(1 0 0 1 -148.4279 0)">
				<stop  offset="0" style="stop-color:#42E8E0"/>
				<stop  offset="0.1055" style="stop-color:#37B6BF"/>
				<stop  offset="0.2197" style="stop-color:#2C87A1"/>
				<stop  offset="0.338" style="stop-color:#235F87"/>
				<stop  offset="0.4587" style="stop-color:#1C3F72"/>
				<stop  offset="0.5824" style="stop-color:#162561"/>
				<stop  offset="0.7105" style="stop-color:#121355"/>
				<stop  offset="0.8458" style="stop-color:#10084E"/>
				<stop  offset="1" style="stop-color:#0F054C"/>
			</linearGradient>
			<path class="st15" d="M705.1,419.1c2.3,1.3,4.4,0.8,5.2-1.3l15.4-42c1.8-4.8,8.9-0.5,10.4,6.3l9.5,42.3c0.7,3.1,2.8,6.2,5.3,7.6
				l2.3,1.3c2.2,1.3,4.2,0.9,5-0.9l3.1-6.6c1.9-4.1,8.4-0.2,10.2,6.1l0,0c0.8,2.9,2.9,5.7,5.1,7l2,1.1c2.4,1.4,4.5,0.8,5.2-1.4
				l2.9-8.8c1.6-4.9,8.8-0.8,10.5,6l9.5,39.1c0.7,3.1,2.9,6.1,5.3,7.4L705.1,419.1z"/>
			<path class="st0" d="M795.2,568.5c-2.6-1.5-4.9-4.7-5.8-8l-9.5-39.1c-1-4.2-4.4-7.4-6.7-7.5c-0.9-0.1-1.6,0.5-1.9,1.5l-2.9,8.8
				c-0.4,1.2-1.2,2.1-2.3,2.5c-1.2,0.5-2.8,0.3-4.3-0.6l-2-1.1c-2.5-1.4-4.7-4.4-5.6-7.6c-1.1-4-4.3-6.9-6.5-7.1
				c-0.9-0.1-1.5,0.3-1.9,1.2l-3.1,6.6c-0.5,1-1.3,1.7-2.3,2c-1.2,0.4-2.6,0.1-4.1-0.7l-2.3-1.3c-2.7-1.5-4.9-4.8-5.7-8.2l-9.5-42.3
				c-0.9-4.2-4.3-7.5-6.7-7.6c-0.9,0-1.6,0.4-2,1.4l-15.4,42c-0.4,1.2-1.2,2-2.3,2.4c-1.2,0.5-2.7,0.2-4.2-0.6l0.9-1.6
				c1,0.6,2,0.8,2.7,0.5c0.5-0.2,0.9-0.6,1.2-1.3l15.4-42c0.7-1.8,2.1-2.8,3.8-2.6c3.1,0.2,7.2,3.9,8.4,9.1l9.5,42.3
				c0.6,2.8,2.6,5.7,4.8,7l2.3,1.3c1,0.6,1.9,0.7,2.6,0.5c0.5-0.2,0.9-0.5,1.1-1.1l3.1-6.6c0.7-1.5,2.1-2.4,3.8-2.2
				c3.3,0.3,6.9,4,8.1,8.5c0.7,2.7,2.6,5.3,4.7,6.5l2,1.1c1,0.6,2,0.8,2.7,0.5c0.5-0.2,0.9-0.7,1.2-1.4l2.9-8.8
				c0.6-1.8,1.9-2.8,3.6-2.8c0.1,0,0.1,0,0.2,0c3.1,0.1,7.2,3.7,8.5,8.9l9.5,39.1c0.7,2.8,2.7,5.6,4.9,6.8L795.2,568.5z"/>
		</g>
		<path class="st0" d="M742.3,307.9c-1.9,0-3.9-0.6-5.8-1.6l-103-59.5c-6.4-3.7-9.9-12.5-7.9-19.7c1-3.6,3.2-6.3,6.3-7.6
			c3-1.2,6.3-0.9,9.4,0.9l103,59.5c6.4,3.7,9.9,12.5,7.9,19.7c-1,3.6-3.2,6.3-6.3,7.6C744.8,307.6,743.6,307.9,742.3,307.9z
			 M635.5,220.6c-1,0-2,0.2-3,0.6c-2.5,1-4.3,3.3-5.2,6.4c-1.8,6.5,1.4,14.4,7.1,17.7l103,59.5c2.6,1.5,5.4,1.8,7.8,0.8
			c2.5-1,4.3-3.3,5.2-6.4c1.8-6.5-1.4-14.4-7.1-17.7l-103-59.5C638.8,221.1,637.1,220.6,635.5,220.6z"/>
	</g>
</g>
</svg>
